<?xml version="1.0" standalone="no"?>
<!DOCTYPE svg PUBLIC "-//W3C//DTD SVG 20010904//EN"
 "http://www.w3.org/TR/2001/REC-SVG-20010904/DTD/svg10.dtd">
<svg version="1.0" xmlns="http://www.w3.org/2000/svg"
 width="1280.000000pt" height="1030.000000pt" viewBox="0 0 1280.000000 1030.000000"
 preserveAspectRatio="xMidYMid meet">
<g transform="translate(0.000000,1030.000000) scale(0.100000,-0.100000)"
fill="#000000" stroke="none">
<path d="M351 10284 c-168 -45 -292 -171 -336 -341 -13 -50 -15 -527 -15
-3908 0 -3427 2 -3857 15 -3910 40 -153 146 -268 303 -328 l57 -22 2288 -3
2287 -2 0 -715 0 -715 -259 0 c-142 0 -273 -3 -291 -6 -47 -10 -105 -70 -120
-124 -21 -77 23 -166 97 -196 48 -21 3998 -21 4046 0 73 30 117 121 96 199
-13 51 -73 111 -119 121 -18 3 -149 6 -291 6 l-259 0 0 715 0 715 2288 2 2287
3 57 22 c157 60 263 175 303 328 13 53 15 483 15 3910 0 3426 -2 3857 -15
3910 -45 171 -170 295 -342 340 -50 13 -768 15 -6048 14 -5198 0 -5997 -2
-6044 -15z m11857 -4221 l-3 -3658 -5805 0 -5805 0 -3 3658 -2 3657 5810 0
5810 0 -2 -3657z"/>
</g>
</svg>
